<svg width="207" height="47" viewBox="0 0 207 47" fill="none" xmlns="http://www.w3.org/2000/svg">
<g clip-path="url(#clip0_118_35)">
<path d="M33.8824 0C33.8824 0 34.2503 14.7448 25.4733 15.8544C21.7196 16.3308 16.4789 17.1134 11.7739 18.4518C9.36046 19.1399 8.62649 19.5388 8.62649 19.5388C8.62649 19.5388 8.52736 6.55577 19.9028 5.36106C32.8491 3.99055 33.8824 0 33.8824 0Z" fill="#D446F7"/>
<path d="M44.9563 19.8772C44.748 19.8772 44.5482 19.7951 44.4009 19.649C44.2537 19.503 44.1709 19.3049 44.1709 19.0983C44.1709 18.8918 44.2537 18.6937 44.4009 18.5476C44.5482 18.4016 44.748 18.3195 44.9563 18.3195H52.8393C53.0476 18.3195 53.2474 18.4016 53.3947 18.5476C53.542 18.6937 53.6247 18.8918 53.6247 19.0983C53.6247 19.3049 53.542 19.503 53.3947 19.649C53.2474 19.7951 53.0476 19.8772 52.8393 19.8772H44.9563ZM52.723 33.5199C51.7222 33.5198 50.738 33.2668 49.8634 32.7845C49.041 32.3249 48.3657 31.6449 47.9151 30.8223C47.4417 29.9519 47.2015 28.9756 47.2173 27.9868V13.6106C47.2117 13.4915 47.2308 13.3725 47.2734 13.2609C47.316 13.1494 47.3813 13.0477 47.4651 12.9622C47.5467 12.8808 47.6443 12.8169 47.7519 12.7746C47.8595 12.7324 47.9748 12.7126 48.0904 12.7165C48.2109 12.709 48.3316 12.727 48.4445 12.7693C48.5574 12.8116 48.66 12.8772 48.7454 12.9617C48.8308 13.0462 48.8972 13.1478 48.94 13.2597C48.9829 13.3715 49.0013 13.4912 48.9941 13.6106V27.9774C48.9941 29.0939 49.3429 30.0026 50.0407 30.7032C50.7384 31.4039 51.6421 31.7555 52.7516 31.7581H53.3921C53.5124 31.7509 53.6329 31.7691 53.7456 31.8115C53.8582 31.8539 53.9606 31.9195 54.0458 32.004C54.131 32.0885 54.1972 32.19 54.2399 32.3017C54.2827 32.4135 54.3011 32.5329 54.2938 32.6522C54.2973 32.7669 54.2772 32.881 54.2345 32.9876C54.1919 33.0943 54.1278 33.1911 54.046 33.2722C53.9597 33.3552 53.8571 33.4198 53.7447 33.4621C53.6322 33.5043 53.5123 33.5234 53.3921 33.518L52.723 33.5199Z" fill="#D446F7"/>
<path d="M60.9858 26.5974C60.8702 26.6011 60.7551 26.5812 60.6475 26.539C60.54 26.4968 60.4424 26.4331 60.3607 26.3519C60.2791 26.2707 60.2151 26.1738 60.1727 26.0671C60.1304 25.9604 60.1106 25.8462 60.1145 25.7316V11.8583C60.1081 11.7415 60.1267 11.6247 60.1691 11.5155C60.2114 11.4064 60.2767 11.3074 60.3605 11.225C60.5299 11.0691 60.7547 10.9862 60.9858 10.9944C61.1029 10.984 61.2209 10.9992 61.3314 11.0389C61.442 11.0786 61.5424 11.1419 61.6257 11.2242C61.7089 11.3066 61.7729 11.4061 61.8132 11.5156C61.8535 11.6251 61.8691 11.7421 61.8589 11.8583V25.7316C61.867 25.9606 61.7834 26.1835 61.6263 26.3517C61.5434 26.4355 61.4433 26.5008 61.3328 26.5432C61.2223 26.5856 61.104 26.6041 60.9858 26.5974ZM60.9858 33.5199C60.8702 33.5236 60.7551 33.5037 60.6475 33.4615C60.54 33.4193 60.4424 33.3556 60.3607 33.2744C60.2791 33.1932 60.2151 33.0963 60.1727 32.9896C60.1304 32.8829 60.1106 32.7687 60.1145 32.6541V18.6087C60.1082 18.4917 60.1268 18.3746 60.1692 18.2652C60.2116 18.1557 60.2767 18.0564 60.3605 17.9736C60.5303 17.8184 60.7549 17.7356 60.9858 17.743C61.103 17.7325 61.2212 17.7478 61.3319 17.7876C61.4426 17.8274 61.5432 17.8909 61.6265 17.9734C61.7097 18.056 61.7737 18.1557 61.8139 18.2655C61.854 18.3753 61.8694 18.4924 61.8589 18.6087V32.6541C61.867 32.8831 61.7834 33.106 61.6263 33.2742C61.5434 33.358 61.4433 33.4233 61.3328 33.4657C61.2223 33.5081 61.104 33.5266 60.9858 33.5199ZM73.873 33.5199C73.7574 33.5233 73.6423 33.5032 73.5348 33.4609C73.4273 33.4186 73.3297 33.355 73.2479 33.2739C73.1662 33.1928 73.102 33.096 73.0593 32.9894C73.0167 32.8828 72.9964 32.7687 72.9998 32.6541V24.9036C72.9998 23.6333 72.7526 22.5854 72.2583 21.76C71.7904 20.9559 71.0915 20.3083 70.2508 19.8999C69.3591 19.476 68.38 19.2637 67.3912 19.2798C66.418 19.2639 65.4537 19.4655 64.5698 19.8696C63.7774 20.2304 63.0954 20.7926 62.5928 21.4991C62.1099 22.1834 61.8553 23.0005 61.8646 23.8356H60.41C60.4737 22.6883 60.8456 21.5788 61.4871 20.622C62.1189 19.6773 62.9787 18.904 63.9883 18.3725C65.0351 17.8196 66.2053 17.5368 67.3912 17.5501C68.6976 17.5295 69.9898 17.8213 71.1583 18.4008C72.254 18.9559 73.1639 19.8141 73.7777 20.8715C74.4131 21.9591 74.7308 23.3006 74.7308 24.8961V32.6466C74.7348 32.7612 74.715 32.8753 74.6727 32.982C74.6303 33.0887 74.5663 33.1857 74.4846 33.2668C74.403 33.348 74.3053 33.4117 74.1978 33.4539C74.0903 33.4961 73.9752 33.516 73.8596 33.5123L73.873 33.5199Z" fill="#D446F7"/>
<path d="M89.099 33.6635C87.6691 33.6895 86.258 33.3364 85.0117 32.6409C83.8307 31.9701 82.8595 30.9888 82.2055 29.8053C81.5103 28.5293 81.1596 27.0966 81.1875 25.6465C81.1571 24.2038 81.4844 22.7757 82.1407 21.4877C82.749 20.3229 83.6641 19.343 84.7887 18.6522C85.9531 17.9798 87.2749 17.622 88.6223 17.6144C89.9697 17.6068 91.2956 17.9496 92.4676 18.6087C93.569 19.2681 94.4651 20.2167 95.0565 21.3497C95.6957 22.5943 96.0153 23.976 95.9868 25.3724C95.9926 25.4818 95.9749 25.5911 95.9348 25.6931C95.8947 25.7951 95.8331 25.8875 95.7542 25.9641C95.5872 26.1124 95.3681 26.1898 95.1442 26.1796H82.3561V24.6806H95.6208L94.3416 25.6257C94.4002 24.4837 94.1785 23.3446 93.6953 22.3063C93.2598 21.3776 92.5668 20.5908 91.6974 20.0378C90.7862 19.4762 89.7294 19.1904 88.6567 19.2155C87.615 19.1987 86.5912 19.4846 85.7114 20.0378C84.8379 20.597 84.1341 21.3811 83.6753 22.3063C83.1614 23.3466 82.9064 24.494 82.9318 25.6522C82.9088 26.8055 83.1796 27.9459 83.7192 28.9679C84.2206 29.9094 84.9756 30.6947 85.9001 31.2363C86.8706 31.7951 87.977 32.0795 89.099 32.0586C89.878 32.055 90.651 31.9234 91.3867 31.6692C92.0606 31.4623 92.6811 31.1127 93.2054 30.6446C93.3565 30.4923 93.5618 30.4047 93.7773 30.4008C93.8805 30.3927 93.9843 30.4053 94.0826 30.4378C94.1808 30.4703 94.2715 30.522 94.3492 30.5898C94.4435 30.6563 94.5222 30.7423 94.5798 30.8418C94.6374 30.9413 94.6726 31.0521 94.6828 31.1664C94.6847 31.2771 94.6607 31.3868 94.6128 31.4868C94.5648 31.5868 94.4942 31.6745 94.4064 31.7429C93.6935 32.3539 92.869 32.8236 91.9777 33.1267C91.0581 33.4746 90.0832 33.6564 89.099 33.6635Z" fill="#D446F7"/>
<path d="M103.254 33.5199C103.139 33.5233 103.024 33.5033 102.916 33.461C102.809 33.4186 102.711 33.355 102.629 33.2739C102.547 33.1928 102.483 33.096 102.441 32.9894C102.398 32.8829 102.378 32.7688 102.381 32.6541V18.6088C102.375 18.4915 102.393 18.3743 102.436 18.2648C102.479 18.1552 102.545 18.056 102.629 17.9736C102.799 17.8179 103.023 17.735 103.254 17.743C103.371 17.7329 103.489 17.7483 103.6 17.7883C103.71 17.8282 103.811 17.8917 103.894 17.9742C103.977 18.0568 104.041 18.1564 104.081 18.266C104.121 18.3756 104.136 18.4926 104.125 18.6088V32.6541C104.135 32.8812 104.053 33.1028 103.899 33.2704C103.816 33.3555 103.715 33.4219 103.604 33.465C103.493 33.508 103.373 33.5268 103.254 33.5199ZM102.963 23.8791C103.054 22.7267 103.402 21.6086 103.981 20.605C104.507 19.6902 105.257 18.9217 106.162 18.3706C107.055 17.8311 108.084 17.5508 109.13 17.5615C109.713 17.5365 110.296 17.6251 110.846 17.8224C111.03 17.8841 111.183 18.0157 111.27 18.1885C111.357 18.3614 111.372 18.5614 111.311 18.7449C111.302 18.8617 111.258 18.9734 111.186 19.0658C111.113 19.1583 111.015 19.2275 110.903 19.2647C110.652 19.3221 110.392 19.3266 110.14 19.278C109.808 19.2281 109.473 19.2041 109.137 19.2061C108.237 19.1898 107.347 19.3978 106.549 19.811C105.816 20.1938 105.202 20.7677 104.774 21.4708C104.339 22.1992 104.118 23.033 104.133 23.8791H102.963Z" fill="#D446F7"/>
<path d="M123.796 33.6939C122.334 33.7166 120.893 33.3532 119.621 32.6409C118.407 31.9563 117.402 30.9598 116.711 29.7563C116.015 28.4912 115.649 27.0729 115.649 25.6315C115.649 24.1901 116.015 22.7718 116.711 21.5067C117.402 20.3032 118.407 19.3067 119.621 18.622C120.899 17.9311 122.332 17.5691 123.788 17.5691C125.244 17.5691 126.677 17.9311 127.955 18.622C129.162 19.3109 130.161 20.3068 130.849 21.5067C131.567 22.7688 131.934 24.1977 131.911 25.6466L131.183 26.7997C131.201 28.0406 130.863 29.2609 130.207 30.3177C129.561 31.3536 128.653 32.204 127.574 32.7846C126.414 33.4034 125.113 33.7165 123.796 33.6939ZM123.796 32.0776C124.921 32.1003 126.031 31.8186 127.007 31.2628C127.983 30.7069 128.788 29.8979 129.336 28.9226C129.88 27.911 130.165 26.782 130.165 25.6353C130.165 24.4886 129.88 23.3595 129.336 22.3479C128.789 21.372 127.984 20.5622 127.008 20.0056C126.032 19.4491 124.921 19.1668 123.796 19.1892C122.669 19.1739 121.559 19.4591 120.581 20.0147C119.604 20.5704 118.795 21.3762 118.238 22.3479C117.685 23.3569 117.396 24.487 117.396 25.6353C117.396 26.7836 117.685 27.9137 118.238 28.9226C118.795 29.8944 119.604 30.7002 120.581 31.2558C121.559 31.8115 122.669 32.0966 123.796 32.0814V32.0776ZM131.04 33.52C130.924 33.5234 130.809 33.5033 130.702 33.461C130.594 33.4187 130.497 33.355 130.415 33.274C130.333 33.1929 130.269 33.0961 130.226 32.9895C130.184 32.8829 130.163 32.7688 130.167 32.6542V27.3763L130.72 25.6466H131.913V32.6542C131.921 32.8832 131.837 33.1061 131.68 33.2742C131.597 33.358 131.497 33.4233 131.386 33.4656C131.275 33.508 131.156 33.5265 131.038 33.52H131.04Z" fill="#D446F7"/>
<path d="M31.4365 22.1626C31.5165 31.9036 30.2069 38.0756 15.7545 42.2004C10.0029 43.8393 2.83104 47.0038 2.83104 47.0038C2.83104 47.0038 5.54384 42.2893 6.02806 40.0322C6.51229 37.7751 6.55423 37.3403 6.55423 37.3403C6.55423 37.3403 -3.502 38.6503 1.2983 28.6257C4.83466 21.2401 17.7619 19.1475 25.5915 20.1191C30.8836 20.7751 31.4231 20.6182 31.4365 22.1626Z" fill="white"/>
<path d="M146.1 33.7997C144.75 33.8045 143.404 33.6374 142.097 33.3026C140.826 32.9699 139.803 32.5533 139.029 32.053L140.577 28.709C141.425 29.1832 142.327 29.5526 143.265 29.8092C144.245 30.0939 145.26 30.2409 146.281 30.2458C147.375 30.2458 148.15 30.1154 148.605 29.8545C148.81 29.7557 148.983 29.6014 149.104 29.4094C149.225 29.2175 149.288 28.9957 149.288 28.7695C149.292 28.5909 149.245 28.4149 149.151 28.2626C149.057 28.1103 148.92 27.9882 148.758 27.9112C148.318 27.6933 147.846 27.5459 147.36 27.4746C146.783 27.375 146.14 27.2748 145.431 27.174C144.72 27.0729 144.016 26.9321 143.321 26.7525C142.643 26.5793 141.99 26.3214 141.378 25.985C140.788 25.6613 140.295 25.1884 139.95 24.6145C139.595 24.0322 139.418 23.2761 139.418 22.346C139.405 21.3617 139.726 20.4015 140.329 19.6201C141.002 18.7796 141.895 18.1393 142.911 17.7695C144.024 17.3271 145.371 17.106 146.95 17.106C148.1 17.109 149.245 17.2357 150.367 17.484C151.382 17.6873 152.362 18.0383 153.274 18.5256L151.665 21.8678C150.932 21.4414 150.138 21.1266 149.31 20.9339C148.56 20.7599 147.793 20.6692 147.023 20.6636C145.929 20.6636 145.139 20.8041 144.653 21.0852C144.168 21.3662 143.925 21.7273 143.925 22.1683C143.919 22.3568 143.968 22.543 144.064 22.7056C144.161 22.8681 144.301 23.0003 144.47 23.0871C144.915 23.325 145.398 23.4831 145.898 23.554C146.485 23.6561 147.133 23.7569 147.843 23.8564C148.549 23.9559 149.25 24.0966 149.94 24.278C150.612 24.452 151.26 24.7099 151.867 25.0455C152.457 25.3691 152.949 25.842 153.295 26.416C153.649 26.9982 153.827 27.7506 153.827 28.6731C153.838 29.6292 153.516 30.5598 152.915 31.3082C152.308 32.082 151.432 32.6894 150.288 33.1305C149.145 33.5716 147.748 33.7947 146.1 33.7997Z" fill="white"/>
<path d="M166.92 33.7996C165.319 33.8275 163.737 33.4543 162.32 32.7145C161.339 32.1669 160.477 31.4312 159.785 30.5504C159.093 29.6696 158.585 28.6612 158.29 27.5839C157.994 26.5065 157.918 25.3817 158.065 24.2748C158.212 23.1678 158.579 22.1009 159.146 21.1361C159.913 19.884 161.01 18.8636 162.32 18.1852C163.74 17.4548 165.321 17.0871 166.92 17.1153C168.537 17.0846 170.137 17.4523 171.575 18.1852C172.891 18.8605 173.994 19.8813 174.765 21.1361C175.544 22.443 175.94 23.9395 175.909 25.4574C175.947 26.9486 175.561 28.4202 174.794 29.7037C174.028 30.9872 172.912 32.0307 171.575 32.7145C170.14 33.4569 168.539 33.83 166.92 33.7996ZM166.92 29.9433C167.669 29.9591 168.408 29.7778 169.063 29.4178C169.695 29.0486 170.21 28.5109 170.55 27.8658C170.943 27.1239 171.14 26.2953 171.122 25.4574C171.144 24.6185 170.947 23.7881 170.55 23.0472C170.202 22.4182 169.688 21.8953 169.063 21.535C168.418 21.1767 167.689 20.9946 166.951 21.0075C166.208 20.9959 165.475 21.1778 164.825 21.535C164.192 21.8908 163.672 22.4145 163.323 23.0472C162.925 23.7881 162.728 24.6185 162.751 25.4574C162.733 26.2953 162.93 27.1239 163.323 27.8658C163.664 28.5147 164.185 29.0532 164.825 29.4178C165.465 29.7714 166.187 29.9526 166.92 29.9433Z" fill="white"/>
<path d="M178.846 21.3308V17.7184H190.174V21.3308H178.846ZM181.366 33.5577V16.9944C181.366 15.1468 181.914 13.6818 183.008 12.5993C184.102 11.5167 185.661 10.9717 187.684 10.9641C188.348 10.9642 189.009 11.0352 189.657 11.1758C190.237 11.2898 190.793 11.5035 191.299 11.8072L190.054 15.2401C189.783 15.0578 189.486 14.9158 189.173 14.8186C188.838 14.7171 188.49 14.6668 188.14 14.6692C187.451 14.6692 186.92 14.8583 186.546 15.2363C186.172 15.6144 185.985 16.2168 185.984 17.0435V18.5558L186.136 20.5426V33.552L181.366 33.5577Z" fill="white"/>
<path d="M194.547 21.3308V17.7184H205.875V21.3308H194.547ZM203.172 33.8072C201.249 33.8072 199.751 33.3201 198.679 32.346C197.606 31.3718 197.069 29.9225 197.068 27.9981V13.7732H201.834V27.8961C201.834 28.5791 202.011 29.1116 202.365 29.4934C202.551 29.6849 202.776 29.8346 203.025 29.9325C203.274 30.0303 203.541 30.074 203.809 30.0605C204.507 30.0826 205.192 29.8708 205.753 29.4594L206.998 32.7713C206.482 33.1354 205.899 33.3961 205.282 33.5388C204.592 33.7122 203.884 33.7998 203.172 33.7997V33.8072Z" fill="white"/>
</g>
<defs>
<clipPath id="clip0_118_35">
<rect width="207" height="47" fill="white"/>
</clipPath>
</defs>
</svg>
