<svg width="200" height="47" viewBox="0 0 200 47" fill="none" xmlns="http://www.w3.org/2000/svg">
<g clip-path="url(#clip0_87_324)">
<path d="M32.7368 0C32.7368 0 33.0923 14.7448 24.6121 15.8544C20.9853 16.3308 15.9219 17.1134 11.376 18.4518C9.04413 19.1399 8.33499 19.5388 8.33499 19.5388C8.33499 19.5388 8.23921 6.55577 19.23 5.36106C31.7385 3.99055 32.7368 0 32.7368 0Z" fill="#D446F7"/>
<path d="M43.4366 19.8771C43.2353 19.8771 43.0423 19.7951 42.9 19.649C42.7577 19.503 42.6777 19.3049 42.6777 19.0983C42.6777 18.8917 42.7577 18.6936 42.9 18.5476C43.0423 18.4015 43.2353 18.3195 43.4366 18.3195H51.053C51.2542 18.3195 51.4473 18.4015 51.5896 18.5476C51.7319 18.6936 51.8118 18.8917 51.8118 19.0983C51.8118 19.3049 51.7319 19.503 51.5896 19.649C51.4473 19.7951 51.2542 19.8771 51.053 19.8771H43.4366ZM50.9406 33.5199C49.9737 33.5198 49.0228 33.2667 48.1777 32.7845C47.3831 32.3249 46.7307 31.6449 46.2953 30.8223C45.8379 29.9519 45.6058 28.9756 45.6211 27.9868V13.6106C45.6157 13.4914 45.6341 13.3724 45.6753 13.2609C45.7165 13.1494 45.7796 13.0477 45.8606 12.9622C45.9394 12.8808 46.0337 12.8169 46.1377 12.7746C46.2416 12.7323 46.353 12.7125 46.4647 12.7164C46.5811 12.709 46.6977 12.727 46.8068 12.7693C46.9159 12.8116 47.015 12.8771 47.0975 12.9617C47.1801 13.0462 47.2442 13.1478 47.2856 13.2596C47.327 13.3715 47.3448 13.4911 47.3378 13.6106V25.7316C47.3378 29.0939 47.6749 30.0025 48.349 30.7032C49.0232 31.4039 49.8962 31.7555 50.9682 31.758H51.5871C51.7034 31.7509 51.8198 31.7691 51.9286 31.8115C52.0375 31.8539 52.1364 31.9195 52.2187 32.004C52.301 32.0885 52.365 32.19 52.4063 32.3017C52.4476 32.4134 52.4653 32.5329 52.4584 32.6522C52.4617 32.7668 52.4422 32.881 52.4011 32.9876C52.3599 33.0942 52.2979 33.1911 52.2189 33.2722C52.1355 33.3552 52.0364 33.4198 51.9277 33.462C51.8191 33.5043 51.7032 33.5233 51.5871 33.518L50.9406 33.5199Z" fill="#D446F7"/>
<path d="M58.923 26.5973C58.8114 26.601 58.7002 26.5812 58.5963 26.5389C58.4924 26.4967 58.3981 26.433 58.3192 26.3519C58.2403 26.2707 58.1784 26.1737 58.1375 26.067C58.0966 25.9603 58.0774 25.8462 58.0813 25.7316V11.8582C58.0751 11.7414 58.093 11.6246 58.134 11.5155C58.1749 11.4063 58.238 11.3073 58.3189 11.2249C58.4826 11.069 58.6999 10.9861 58.923 10.9943C59.0362 10.9839 59.1502 10.9991 59.257 11.0388C59.3639 11.0786 59.4609 11.1418 59.5413 11.2242C59.6217 11.3065 59.6836 11.406 59.7225 11.5156C59.7615 11.6251 59.7765 11.7421 59.7666 11.8582V25.7316C59.7745 25.9606 59.6937 26.1835 59.5419 26.3516C59.4618 26.4355 59.3651 26.5008 59.2584 26.5431C59.1516 26.5855 59.0373 26.604 58.923 26.5973ZM58.923 33.5198C58.8114 33.5235 58.7002 33.5036 58.5963 33.4614C58.4924 33.4192 58.3981 33.3555 58.3192 33.2743C58.2403 33.1932 58.1784 33.0962 58.1375 32.9895C58.0966 32.8828 58.0774 32.7687 58.0813 32.6541V18.6087C58.0751 18.4916 58.0931 18.3745 58.1341 18.2651C58.175 18.1557 58.238 18.0563 58.3189 17.9735C58.483 17.8183 58.7 17.7355 58.923 17.7429C59.0364 17.7325 59.1506 17.7477 59.2575 17.7875C59.3645 17.8274 59.4616 17.8908 59.5421 17.9734C59.6226 18.0559 59.6844 18.1556 59.7232 18.2654C59.762 18.3752 59.7768 18.4924 59.7666 18.6087V32.6541C59.7745 32.8831 59.6937 33.106 59.5419 33.2741C59.4618 33.3579 59.3651 33.4233 59.2584 33.4656C59.1516 33.508 59.0373 33.5265 58.923 33.5198ZM71.3745 33.5199C71.2628 33.5232 71.1516 33.5032 71.0478 33.4609C70.9439 33.4186 70.8496 33.3549 70.7706 33.2738C70.6916 33.1927 70.6296 33.0959 70.5883 32.9894C70.5471 32.8828 70.5276 32.7687 70.5309 32.6541V24.9036C70.5309 23.6333 70.292 22.5854 69.8144 21.7599C69.3623 20.9559 68.6871 20.3083 67.8748 19.8998C67.0132 19.4759 66.0673 19.2636 65.1119 19.2798C64.1716 19.2638 63.2399 19.4654 62.3859 19.8696C61.6203 20.2303 60.9613 20.7925 60.4758 21.499C60.0092 22.1833 59.7632 23.0004 59.7722 23.8355H58.3668C58.4283 22.6883 58.7876 21.5788 59.4075 20.6219C60.0179 19.6772 60.8486 18.904 61.8241 18.3724C62.8354 17.8195 63.9661 17.5367 65.1119 17.5501C66.3741 17.5294 67.6226 17.8212 68.7516 18.4007C69.8102 18.9558 70.6893 19.814 71.2824 20.8714C71.8963 21.959 72.2033 23.3006 72.2033 24.896V32.6465C72.2072 32.7611 72.188 32.8753 72.1471 32.982C72.1062 33.0887 72.0444 33.1856 71.9655 33.2668C71.8865 33.348 71.7922 33.4116 71.6883 33.4539C71.5845 33.4961 71.4732 33.516 71.3616 33.5123L71.3745 33.5199Z" fill="#D446F7"/>
<path d="M86.0863 33.6635C84.7047 33.6895 83.3414 33.3364 82.1372 32.6408C80.9961 31.9701 80.0578 30.9888 79.4259 29.8053C78.7542 28.5292 78.4153 27.0966 78.4423 25.6465C78.413 24.2038 78.7292 22.7757 79.3633 21.4877C79.9511 20.3228 80.8351 19.343 81.9217 18.6522C83.0467 17.9798 84.3238 17.622 85.6257 17.6144C86.9275 17.6067 88.2086 17.9496 89.341 18.6087C90.4052 19.2681 91.2709 20.2167 91.8423 21.3497C92.4599 22.5943 92.7687 23.976 92.7412 25.3724C92.7468 25.4817 92.7296 25.5911 92.6909 25.6931C92.6522 25.7951 92.5927 25.8875 92.5165 25.9641C92.3551 26.1124 92.1434 26.1897 91.927 26.1796H79.5714V24.6805H92.3875L91.1516 25.6257C91.2082 24.4837 90.994 23.3446 90.5272 22.3062C90.1063 21.3775 89.4369 20.5908 88.5968 20.0378C87.7164 19.4761 86.6954 19.1904 85.659 19.2155C84.6525 19.1987 83.6633 19.4846 82.8132 20.0378C81.9693 20.597 81.2893 21.3811 80.846 22.3062C80.3494 23.3466 80.1031 24.494 80.1277 25.6522C80.1054 26.8055 80.3671 27.9459 80.8884 28.9679C81.3729 29.9094 82.1023 30.6946 82.9955 31.2363C83.9332 31.7951 85.0022 32.0795 86.0863 32.0586C86.839 32.0549 87.5858 31.9234 88.2966 31.6692C88.9477 31.4623 89.5473 31.1127 90.0538 30.6446C90.1998 30.4922 90.3982 30.4047 90.6064 30.4007C90.7061 30.3927 90.8064 30.4053 90.9013 30.4378C90.9963 30.4703 91.0839 30.5219 91.159 30.5898C91.2501 30.6563 91.3261 30.7422 91.3818 30.8418C91.4374 30.9413 91.4714 31.052 91.4813 31.1663C91.4831 31.2771 91.4599 31.3867 91.4136 31.4867C91.3673 31.5868 91.299 31.6744 91.2142 31.7429C90.5254 32.3538 89.7288 32.8236 88.8676 33.1266C87.9792 33.4746 87.0372 33.6564 86.0863 33.6635Z" fill="#D446F7"/>
<path d="M99.7628 33.5199C99.6511 33.5233 99.5399 33.5032 99.4361 33.4609C99.3322 33.4186 99.2379 33.3549 99.1589 33.2739C99.0799 33.1928 99.0179 33.096 98.9766 32.9894C98.9354 32.8828 98.9159 32.7687 98.9192 32.6541V18.6087C98.9129 18.4915 98.931 18.3742 98.9723 18.2647C99.0136 18.1552 99.0771 18.0559 99.1586 17.9736C99.3224 17.8178 99.5396 17.7349 99.7628 17.7429C99.876 17.7328 99.9899 17.7482 100.097 17.7882C100.203 17.8282 100.3 17.8916 100.381 17.9742C100.461 18.0567 100.522 18.1563 100.561 18.2659C100.6 18.3756 100.615 18.4926 100.605 18.6087V32.6541C100.614 32.8812 100.535 33.1027 100.385 33.2703C100.305 33.3555 100.208 33.4218 100.101 33.4649C99.9932 33.508 99.8779 33.5267 99.7628 33.5199ZM99.481 23.879C99.5697 22.7266 99.9056 21.6086 100.465 20.6049C100.973 19.6901 101.697 18.9216 102.572 18.3705C103.435 17.831 104.429 17.5507 105.44 17.5615C106.003 17.5364 106.567 17.625 107.097 17.8223C107.276 17.884 107.423 18.0156 107.507 18.1885C107.592 18.3613 107.606 18.5613 107.547 18.7448C107.538 18.8617 107.496 18.9733 107.426 19.0658C107.356 19.1582 107.261 19.2274 107.153 19.2647C106.911 19.322 106.66 19.3265 106.416 19.2779C106.095 19.2281 105.771 19.204 105.447 19.2061C104.577 19.1897 103.717 19.3977 102.946 19.811C102.237 20.1937 101.645 20.7676 101.231 21.4707C100.811 22.1992 100.597 23.0329 100.612 23.879H99.481Z" fill="#D446F7"/>
<path d="M119.609 33.6938C118.197 33.7165 116.805 33.3531 115.575 32.6408C114.402 31.9562 113.431 30.9596 112.764 29.7561C112.091 28.4911 111.738 27.0728 111.738 25.6314C111.738 24.19 112.091 22.7716 112.764 21.5066C113.431 20.3031 114.402 19.3066 115.575 18.6219C116.81 17.931 118.195 17.569 119.602 17.569C121.008 17.569 122.393 17.931 123.628 18.6219C124.794 19.3108 125.759 20.3066 126.424 21.5066C127.118 22.7686 127.472 24.1975 127.45 25.6465L126.746 26.7996C126.764 28.0404 126.437 29.2608 125.803 30.3176C125.18 31.3534 124.303 32.2039 123.26 32.7845C122.139 33.4033 120.882 33.7163 119.609 33.6938ZM119.609 32.0775C120.696 32.1002 121.769 31.8185 122.712 31.2626C123.655 30.7068 124.433 29.8978 124.962 28.9225C125.488 27.9109 125.763 26.7818 125.763 25.6352C125.763 24.4885 125.488 23.3594 124.962 22.3478C124.433 21.3718 123.656 20.5621 122.713 20.0055C121.77 19.449 120.697 19.1667 119.609 19.189C118.52 19.1738 117.448 19.4589 116.503 20.0146C115.559 20.5703 114.777 21.3761 114.24 22.3478C113.705 23.3568 113.426 24.4868 113.426 25.6352C113.426 26.7835 113.705 27.9135 114.24 28.9225C114.777 29.8942 115.559 30.7 116.503 31.2557C117.448 31.8114 118.52 32.0965 119.609 32.0813V32.0775ZM126.608 33.5198C126.497 33.5232 126.385 33.5032 126.282 33.4609C126.178 33.4186 126.083 33.3549 126.004 33.2738C125.925 33.1927 125.863 33.0959 125.822 32.9894C125.781 32.8828 125.761 32.7687 125.765 32.6541V27.3762L126.299 25.6465H127.452V32.6541C127.46 32.8831 127.379 33.106 127.227 33.2741C127.147 33.3579 127.05 33.4232 126.943 33.4655C126.836 33.5079 126.721 33.5264 126.606 33.5198H126.608Z" fill="#D446F7"/>
<path d="M141.16 33.7996C139.855 33.8044 138.555 33.6374 137.292 33.3025C136.064 32.9698 135.076 32.5532 134.328 32.0529L135.824 28.7089C136.642 29.1831 137.515 29.5526 138.421 29.8091C139.368 30.0938 140.348 30.2408 141.335 30.2458C142.392 30.2458 143.141 30.1153 143.58 29.8544C143.778 29.7556 143.945 29.6013 144.062 29.4094C144.179 29.2174 144.24 28.9956 144.24 28.7694C144.244 28.5909 144.198 28.4148 144.107 28.2625C144.016 28.1102 143.884 27.9882 143.727 27.9112C143.303 27.6932 142.847 27.5458 142.377 27.4745C141.82 27.3749 141.199 27.2747 140.513 27.1739C139.826 27.0728 139.146 26.932 138.474 26.7524C137.819 26.5793 137.189 26.3214 136.597 25.9849C136.028 25.6612 135.552 25.1883 135.218 24.6144C134.875 24.0321 134.704 23.276 134.704 22.3459C134.691 21.3616 135.001 20.4014 135.584 19.62C136.234 18.7795 137.097 18.1392 138.078 17.7694C139.154 17.327 140.455 17.1059 141.981 17.1059C143.092 17.1089 144.198 17.2356 145.282 17.4839C146.263 17.6873 147.21 18.0382 148.091 18.5255L146.536 21.8677C145.828 21.4413 145.061 21.1265 144.262 20.9338C143.537 20.7598 142.796 20.6691 142.051 20.6635C140.994 20.6635 140.231 20.804 139.762 21.0851C139.293 21.3661 139.058 21.7272 139.058 22.1682C139.053 22.3567 139.099 22.543 139.193 22.7055C139.286 22.868 139.422 23.0002 139.585 23.087C140.014 23.3249 140.481 23.483 140.965 23.5539C141.532 23.656 142.158 23.7568 142.843 23.8563C143.526 23.9558 144.203 24.0965 144.869 24.2779C145.519 24.4519 146.145 24.7098 146.732 25.0454C147.301 25.369 147.778 25.8419 148.111 26.4159C148.454 26.9981 148.625 27.7505 148.625 28.673C148.636 29.6291 148.325 30.5597 147.745 31.3081C147.158 32.0819 146.312 32.6894 145.207 33.1304C144.101 33.5715 142.752 33.7946 141.16 33.7996Z" fill="#002ADD"/>
<path d="M161.275 33.7996C159.728 33.8275 158.2 33.4543 156.831 32.7146C155.883 32.1669 155.05 31.4313 154.382 30.5505C153.713 29.6697 153.222 28.6613 152.937 27.5839C152.651 26.5065 152.578 25.3817 152.72 24.2748C152.862 23.1679 153.217 22.101 153.764 21.1361C154.505 19.8841 155.566 18.8637 156.831 18.1853C158.203 17.4549 159.73 17.0871 161.275 17.1153C162.838 17.0847 164.383 17.4523 165.773 18.1853C167.045 18.8606 168.111 19.8813 168.855 21.1361C169.608 22.4431 169.99 23.9396 169.96 25.4575C169.997 26.9486 169.624 28.4202 168.883 29.7037C168.143 30.9872 167.065 32.0307 165.773 32.7146C164.386 33.4569 162.84 33.83 161.275 33.7996ZM161.275 29.9433C161.999 29.9592 162.713 29.7778 163.346 29.4178C163.957 29.0487 164.454 28.511 164.782 27.8658C165.162 27.1239 165.352 26.2953 165.335 25.4575C165.357 24.6186 165.166 23.7882 164.782 23.0473C164.447 22.4182 163.95 21.8953 163.346 21.535C162.723 21.1767 162.019 20.9947 161.305 21.0076C160.587 20.9959 159.879 21.1778 159.251 21.535C158.64 21.8909 158.137 22.4145 157.8 23.0473C157.416 23.7882 157.225 24.6186 157.247 25.4575C157.23 26.2953 157.42 27.1239 157.8 27.8658C158.129 28.5147 158.633 29.0532 159.251 29.4178C159.87 29.7714 160.567 29.9526 161.275 29.9433Z" fill="#002ADD"/>
<path d="M172.799 21.3308V17.7183H183.744V21.3308H172.799ZM175.234 33.5577V16.9943C175.234 15.1468 175.762 13.6818 176.82 12.5992C177.877 11.5167 179.383 10.9716 181.338 10.9641C181.979 10.9642 182.618 11.0352 183.244 11.1758C183.805 11.2898 184.342 11.5034 184.83 11.8072L183.628 15.2401C183.365 15.0578 183.079 14.9158 182.777 14.8185C182.453 14.7171 182.116 14.6668 181.778 14.6692C181.113 14.6692 180.599 14.8582 180.238 15.2363C179.877 15.6144 179.696 16.2168 179.695 17.0435V18.5558L179.842 20.5425V33.552L175.234 33.5577Z" fill="#002ADD"/>
<path d="M187.969 21.3308V17.7183H198.913V21.3308H187.969ZM196.302 33.8072C194.444 33.8072 192.997 33.3201 191.96 32.3459C190.924 31.3718 190.405 29.9225 190.404 27.9981V13.7732H195.009V27.896C195.009 28.5791 195.18 29.1115 195.522 29.4934C195.702 29.6849 195.919 29.8346 196.16 29.9324C196.4 30.0303 196.658 30.0739 196.917 30.0605C197.591 30.0826 198.253 29.8708 198.796 29.4594L199.998 32.7713C199.5 33.1354 198.937 33.3961 198.341 33.5388C197.674 33.7122 196.989 33.7998 196.302 33.7996V33.8072Z" fill="#002ADD"/>
</g>
<defs>
<clipPath id="clip0_87_324">
<rect width="200" height="47" fill="white"/>
</clipPath>
</defs>
</svg>
